#Comment line ignore any data following # character 
#Hierarchical Translation and Rotation (.htr) file 
[Header]	
#Header keywords are followed by a single value 
FileType HTR		#Single word string
DataType HTRS		#Translation followed by rotation and scale data
FileVersion 1		#integer
NumSegments 84		#integer
NumFrames 2		#integer
DataFrameRate 30		#integer, data frame rate in this file
EulerRotationOrder ZYX
CalibrationUnits mm
RotationUnits Degrees
GlobalAxisofGravity Y
BoneLengthAxis Y
ScaleFactor 1.00
[SegmentNames&Hierarchy]
#CHILD	PARENT
MASTER GLOBAL
root MASTER
chest root
L_mid_tent01 root
R_mid_tent01 root
spine01 root
Bip01_Neck chest
L_humerus chest
R_humerus chest
weapon_bone chest
Bip01_Head Bip01_Neck
eye_left_bone Bip01_Head
eye_right_bone Bip01_Head
L_forearm L_humerus
L_front_hand L_forearm
L_weapon_bone L_forearm
L_front_hand01_01 L_front_hand
L_front_hand02_01 L_front_hand
L_front_hand03_01 L_front_hand
L_front_hand01_02 L_front_hand01_01
L_front_hand02_02 L_front_hand02_01
L_front_hand03_02 L_front_hand03_01
R_forearm R_humerus
R_front_hand R_forearm
R_weapon_bone R_forearm
R_front_hand01_01 R_front_hand
R_front_hand02_01 R_front_hand
R_front_hand03_01 R_front_hand
R_front_hand01_02 R_front_hand01_01
R_front_hand02_02 R_front_hand02_01
R_front_hand03_02 R_front_hand03_01
null_rope01_connect L_mid_tent01
Rope1_Seg01 null_rope01_connect
Rope1_Seg02 Rope1_Seg01
Rope1_Seg03 Rope1_Seg02
Rope1_Seg04 Rope1_Seg03
Rope1_Seg05 Rope1_Seg04
Rope1_Seg06 Rope1_Seg05
Rope1_Seg07 Rope1_Seg06
Rope1_Seg09 Rope1_Seg07
L_mid_hand01 Rope1_Seg09
L_mid_hand02 Rope1_Seg09
L_mid_hand03 Rope1_Seg09
null_rope02_connect R_mid_tent01
Rope2_Seg01 null_rope02_connect
Rope2_Seg02 Rope2_Seg01
Rope2_Seg03 Rope2_Seg02
Rope2_Seg04 Rope2_Seg03
Rope2_Seg05 Rope2_Seg04
Rope2_Seg06 Rope2_Seg05
Rope2_Seg07 Rope2_Seg06
Rope2_Seg09 Rope2_Seg07
R_mid_hand01 Rope2_Seg09
R_mid_hand02 Rope2_Seg09
R_mid_hand03 Rope2_Seg09
spine02 spine01
spine03 spine02
pelvis spine03
null_rope03_connect pelvis
null_rope04_connect pelvis
Rope3_Seg01 null_rope03_connect
Rope3_Seg02 Rope3_Seg01
Rope3_Seg03 Rope3_Seg02
Rope3_Seg04 Rope3_Seg03
Rope3_Seg05 Rope3_Seg04
Rope3_Seg06 Rope3_Seg05
Rope3_Seg07 Rope3_Seg06
Rope3_Seg08 Rope3_Seg07
Rope3_Seg09 Rope3_Seg08
R_rear_hand01 Rope3_Seg09
R_rear_hand02 Rope3_Seg09
R_rear_hand03 Rope3_Seg09
Rope4_Seg01 null_rope04_connect
Rope4_Seg02 Rope4_Seg01
Rope4_Seg03 Rope4_Seg02
Rope4_Seg04 Rope4_Seg03
Rope4_Seg05 Rope4_Seg04
Rope4_Seg06 Rope4_Seg05
Rope4_Seg07 Rope4_Seg06
Rope4_Seg08 Rope4_Seg07
Rope4_Seg09 Rope4_Seg08
L_rear_hand01 Rope4_Seg09
L_rear_hand02 Rope4_Seg09
L_rear_hand03 Rope4_Seg09
[BasePosition]
#SegmentName Tx, Ty, Tz, Rx, Ry, Rz, BoneLength
MASTER 0.000000 0.000000 0.000000 -90.000000 0.000000 0.000000 10.000000 
root 0.000000 0.000000 0.000000 0.000000 0.000000 0.000000 10.000000 
chest 0.000000 0.000000 0.000000 0.000000 0.000000 0.000000 10.000000 
L_mid_tent01 0.000000 0.000000 0.000000 0.000000 0.000000 0.000000 10.000000 
R_mid_tent01 0.000000 0.000000 0.000000 0.000000 0.000000 0.000000 10.000000 
spine01 0.000000 0.000000 0.000000 0.000000 0.000000 0.000000 10.000000 
Bip01_Neck 0.000000 0.000000 0.000000 0.000000 0.000000 0.000000 10.000000 
L_humerus 0.000000 0.000000 0.000000 0.000000 0.000000 0.000000 10.000000 
R_humerus 0.000000 0.000000 0.000000 0.000000 0.000000 0.000000 10.000000 
weapon_bone 0.000000 0.000000 0.000000 0.000000 0.000000 0.000000 10.000000 
Bip01_Head 0.000000 0.000000 0.000000 0.000000 0.000000 0.000000 10.000000 
eye_left_bone 0.000000 0.000000 0.000000 0.000000 0.000000 0.000000 10.000000 
eye_right_bone 0.000000 0.000000 0.000000 0.000000 0.000000 0.000000 10.000000 
L_forearm 0.000000 0.000000 0.000000 0.000000 0.000000 0.000000 10.000000 
L_front_hand 0.000000 0.000000 0.000000 0.000000 0.000000 0.000000 10.000000 
L_weapon_bone 0.000000 0.000000 0.000000 0.000000 0.000000 0.000000 10.000000 
L_front_hand01_01 0.000000 0.000000 0.000000 0.000000 0.000000 0.000000 10.000000 
L_front_hand02_01 0.000000 0.000000 0.000000 0.000000 0.000000 0.000000 10.000000 
L_front_hand03_01 0.000000 0.000000 0.000000 0.000000 0.000000 0.000000 10.000000 
L_front_hand01_02 0.000000 0.000000 0.000000 0.000000 0.000000 0.000000 10.000000 
L_front_hand02_02 0.000000 0.000000 0.000000 0.000000 0.000000 0.000000 10.000000 
L_front_hand03_02 0.000000 0.000000 0.000000 0.000000 0.000000 0.000000 10.000000 
R_forearm 0.000000 0.000000 0.000000 0.000000 0.000000 0.000000 10.000000 
R_front_hand 0.000000 0.000000 0.000000 0.000000 0.000000 0.000000 10.000000 
R_weapon_bone 0.000000 0.000000 0.000000 0.000000 0.000000 0.000000 10.000000 
R_front_hand01_01 0.000000 0.000000 0.000000 0.000000 0.000000 0.000000 10.000000 
R_front_hand02_01 0.000000 0.000000 0.000000 0.000000 0.000000 0.000000 10.000000 
R_front_hand03_01 0.000000 0.000000 0.000000 0.000000 0.000000 0.000000 10.000000 
R_front_hand01_02 0.000000 0.000000 0.000000 0.000000 0.000000 0.000000 10.000000 
R_front_hand02_02 0.000000 0.000000 0.000000 0.000000 0.000000 0.000000 10.000000 
R_front_hand03_02 0.000000 0.000000 0.000000 0.000000 0.000000 0.000000 10.000000 
null_rope01_connect 0.000000 0.000000 0.000000 0.000000 0.000000 0.000000 10.000000 
Rope1_Seg01 0.000000 0.000000 0.000000 0.000000 0.000000 0.000000 10.000000 
Rope1_Seg02 0.000000 0.000000 0.000000 0.000000 0.000000 0.000000 10.000000 
Rope1_Seg03 0.000000 0.000000 0.000000 0.000000 0.000000 0.000000 10.000000 
Rope1_Seg04 0.000000 0.000000 0.000000 0.000000 0.000000 0.000000 10.000000 
Rope1_Seg05 0.000000 0.000000 0.000000 0.000000 0.000000 0.000000 10.000000 
Rope1_Seg06 0.000000 0.000000 0.000000 0.000000 0.000000 0.000000 10.000000 
Rope1_Seg07 0.000000 0.000000 0.000000 0.000000 0.000000 0.000000 10.000000 
Rope1_Seg09 0.000000 0.000000 0.000000 0.000000 0.000000 0.000000 10.000000 
L_mid_hand01 0.000000 0.000000 0.000000 0.000000 0.000000 0.000000 10.000000 
L_mid_hand02 0.000000 0.000000 0.000000 0.000000 0.000000 0.000000 10.000000 
L_mid_hand03 0.000000 0.000000 0.000000 0.000000 0.000000 0.000000 10.000000 
null_rope02_connect 0.000000 0.000000 0.000000 0.000000 0.000000 0.000000 10.000000 
Rope2_Seg01 0.000000 0.000000 0.000000 0.000000 0.000000 0.000000 10.000000 
Rope2_Seg02 0.000000 0.000000 0.000000 0.000000 0.000000 0.000000 10.000000 
Rope2_Seg03 0.000000 0.000000 0.000000 0.000000 0.000000 0.000000 10.000000 
Rope2_Seg04 0.000000 0.000000 0.000000 0.000000 0.000000 0.000000 10.000000 
Rope2_Seg05 0.000000 0.000000 0.000000 0.000000 0.000000 0.000000 10.000000 
Rope2_Seg06 0.000000 0.000000 0.000000 0.000000 0.000000 0.000000 10.000000 
Rope2_Seg07 0.000000 0.000000 0.000000 0.000000 0.000000 0.000000 10.000000 
Rope2_Seg09 0.000000 0.000000 0.000000 0.000000 0.000000 0.000000 10.000000 
R_mid_hand01 0.000000 0.000000 0.000000 0.000000 0.000000 0.000000 10.000000 
R_mid_hand02 0.000000 0.000000 0.000000 0.000000 0.000000 0.000000 10.000000 
R_mid_hand03 0.000000 0.000000 0.000000 0.000000 0.000000 0.000000 10.000000 
spine02 0.000000 0.000000 0.000000 0.000000 0.000000 0.000000 10.000000 
spine03 0.000000 0.000000 0.000000 0.000000 0.000000 0.000000 10.000000 
pelvis 0.000000 0.000000 0.000000 0.000000 0.000000 0.000000 10.000000 
null_rope03_connect 0.000000 0.000000 0.000000 0.000000 0.000000 0.000000 10.000000 
null_rope04_connect 0.000000 0.000000 0.000000 0.000000 0.000000 0.000000 10.000000 
Rope3_Seg01 0.000000 0.000000 0.000000 0.000000 0.000000 0.000000 10.000000 
Rope3_Seg02 0.000000 0.000000 0.000000 0.000000 0.000000 0.000000 10.000000 
Rope3_Seg03 0.000000 0.000000 0.000000 0.000000 0.000000 0.000000 10.000000 
Rope3_Seg04 0.000000 0.000000 0.000000 0.000000 0.000000 0.000000 10.000000 
Rope3_Seg05 0.000000 0.000000 0.000000 0.000000 0.000000 0.000000 10.000000 
Rope3_Seg06 0.000000 0.000000 0.000000 0.000000 0.000000 0.000000 10.000000 
Rope3_Seg07 0.000000 0.000000 0.000000 0.000000 0.000000 0.000000 10.000000 
Rope3_Seg08 0.000000 0.000000 0.000000 0.000000 0.000000 0.000000 10.000000 
Rope3_Seg09 0.000000 0.000000 0.000000 0.000000 0.000000 0.000000 10.000000 
R_rear_hand01 0.000000 0.000000 0.000000 0.000000 0.000000 0.000000 10.000000 
R_rear_hand02 0.000000 0.000000 0.000000 0.000000 0.000000 0.000000 10.000000 
R_rear_hand03 0.000000 0.000000 0.000000 0.000000 0.000000 0.000000 10.000000 
Rope4_Seg01 0.000000 0.000000 0.000000 0.000000 0.000000 0.000000 10.000000 
Rope4_Seg02 0.000000 0.000000 0.000000 0.000000 0.000000 0.000000 10.000000 
Rope4_Seg03 0.000000 0.000000 0.000000 0.000000 0.000000 0.000000 10.000000 
Rope4_Seg04 0.000000 0.000000 0.000000 0.000000 0.000000 0.000000 10.000000 
Rope4_Seg05 0.000000 0.000000 0.000000 0.000000 0.000000 0.000000 10.000000 
Rope4_Seg06 0.000000 0.000000 0.000000 0.000000 0.000000 0.000000 10.000000 
Rope4_Seg07 0.000000 0.000000 0.000000 0.000000 0.000000 0.000000 10.000000 
Rope4_Seg08 0.000000 0.000000 0.000000 0.000000 0.000000 0.000000 10.000000 
Rope4_Seg09 0.000000 0.000000 0.000000 0.000000 0.000000 0.000000 10.000000 
L_rear_hand01 0.000000 0.000000 0.000000 0.000000 0.000000 0.000000 10.000000 
L_rear_hand02 0.000000 0.000000 0.000000 0.000000 0.000000 0.000000 10.000000 
L_rear_hand03 0.000000 0.000000 0.000000 0.000000 0.000000 0.000000 10.000000 
#Beginning of Data. Separated by tabs
#Fr	Tx	Ty	Tz	Rx	Ry	Rz	SF
[MASTER]
9 0.000000 0.000000 0.000000 0.001660 0.001660 0.001660 0.000000
10 0.000000 0.000000 0.000000 0.001660 0.001660 0.001660 0.000000
[root]
9 -16.502295 -45.377296 1487.510742 -85.631889 -17.163900 -92.177643 1488.294312
10 -16.502296 -41.491947 1484.729126 -82.496368 -16.802931 -92.108925 1485.400513
[chest]
9 -84.512650 -34.090519 0.000000 -1.731140 -0.126347 151.743652 91.129311
10 -84.512650 -34.090519 0.000000 0.805807 -0.001727 150.124664 91.129311
[L_mid_tent01]
9 27.299221 22.178432 -249.918457 -1.153856 28.983540 67.645149 252.381393
10 27.299213 22.178473 -249.918472 -0.844760 31.533615 67.795761 252.381409
[R_mid_tent01]
9 23.228794 24.509907 226.238495 162.436279 -26.886654 81.940125 228.744751
10 23.228794 24.509907 226.238495 163.935349 -27.877047 78.653351 228.744751
[spine01]
9 -0.361383 -0.195265 0.000000 0.001905 0.001372 18.482458 0.410763
10 -0.361383 -0.195265 0.000000 0.001908 0.001368 18.692436 0.410763
[Bip01_Neck]
9 165.484543 71.581718 0.000119 176.643677 -1.657967 43.431911 180.302734
10 165.484543 71.581718 0.000119 176.643677 -1.657967 43.431911 180.302734
[L_humerus]
9 -13.983130 -135.272980 -120.471481 172.473633 13.267031 -89.002747 181.680161
10 -13.983130 -135.272980 -120.471481 171.970428 19.266897 -91.354622 181.680161
[R_humerus]
9 -13.983309 -135.273102 125.287651 -173.795074 0.568724 -86.703560 184.909012
10 -13.983309 -135.273102 125.287651 -172.642593 -1.629443 -89.548187 184.909012
[weapon_bone]
9 235.964890 -300.705902 0.000000 0.000000 -89.951546 -128.212341 382.234833
10 235.964890 -300.705902 0.000000 0.000000 -89.951546 -128.212341 382.234833
[Bip01_Head]
9 213.444260 185.715561 11.776930 4.962490 2.797846 -43.898743 283.173828
10 213.444244 185.715561 11.776931 4.962490 2.797846 -43.898743 283.173798
[eye_left_bone]
9 -24.626970 125.451866 -64.772606 0.000000 -90.000000 -99.840431 143.318359
10 -24.626970 125.451866 -64.772606 0.000000 -90.000000 -99.840431 143.318359
[eye_right_bone]
9 -24.626970 125.451866 64.327362 0.000000 -89.965736 80.156380 143.117676
10 -24.626970 125.451866 64.327362 0.000000 -89.965736 80.156380 143.117676
[L_forearm]
9 322.776093 0.000000 -0.000119 0.000441 -0.002306 -111.634720 322.776093
10 322.776093 0.000000 -0.000119 0.000433 -0.002307 -111.251663 322.776093
[L_front_hand]
9 241.149185 -0.042021 -3.300071 165.495895 -2.050676 -29.299091 241.171753
10 241.149185 -0.042021 -3.300071 167.959671 -1.922529 -28.371820 241.171753
[L_weapon_bone]
9 156.183838 0.000000 0.000000 0.000014 0.000007 0.000001 156.183838
10 156.183838 0.000000 0.000000 0.000014 0.000007 0.000001 156.183838
[L_front_hand01_01]
9 86.095154 20.947098 -0.655860 -0.366594 -0.477154 75.385574 88.609184
10 86.095154 20.947098 -0.655860 -0.366594 -0.477154 75.385574 88.609184
[L_front_hand02_01]
9 86.935165 -11.437475 24.513514 154.399796 -59.883835 -61.369587 91.046425
10 86.935165 -11.437475 24.513514 154.399796 -59.883835 -61.369587 91.046425
[L_front_hand03_01]
9 86.637497 -14.123976 -20.424902 -153.913849 58.118122 -62.702866 90.126129
10 86.637497 -14.123976 -20.424902 -153.913849 58.118130 -62.702866 90.126129
[L_front_hand01_02]
9 71.020905 -0.000179 0.000030 0.000334 -0.002323 -106.379684 71.020905
10 71.020905 -0.000179 0.000030 0.000334 -0.002323 -106.379684 71.020905
[L_front_hand02_02]
9 71.020927 -0.000119 0.000060 0.000334 -0.002323 -106.379684 71.020927
10 71.020927 -0.000119 0.000060 0.000334 -0.002323 -106.379684 71.020927
[L_front_hand03_02]
9 71.020905 -0.000060 0.000060 0.000334 -0.002323 -106.379684 71.020905
10 71.020905 -0.000060 0.000060 0.000334 -0.002323 -106.379684 71.020905
[R_forearm]
9 322.776428 -0.000060 0.000030 0.206191 0.061967 -107.903854 322.776428
10 322.776428 -0.000060 0.000030 0.204203 0.054632 -106.026932 322.776428
[R_front_hand]
9 238.847015 -0.006795 2.210259 13.683290 -10.433424 -28.539106 238.857239
10 238.847015 -0.006795 2.210259 10.987912 -10.565176 -27.435654 238.857239
[R_weapon_bone]
9 155.664093 0.002503 -0.000030 0.003487 0.001180 -90.988930 155.664078
10 155.664093 0.002503 -0.000030 0.003487 0.001180 -90.988930 155.664078
[R_front_hand01_01]
9 87.624611 14.231146 22.918642 -154.633484 -59.950619 61.746037 91.683487
10 87.624611 14.231146 22.918642 -154.633499 -59.950607 61.746044 91.683487
[R_front_hand02_01]
9 89.356956 14.367283 -19.491137 154.602661 58.302849 63.744389 92.579636
10 89.356956 14.367283 -19.491137 154.602676 58.302856 63.744400 92.579636
[R_front_hand03_01]
9 87.286232 -22.307278 -0.143439 0.162155 -0.423168 -75.767921 90.091743
10 87.286232 -22.307278 -0.143439 0.162155 -0.423168 -75.767906 90.091743
[R_front_hand01_02]
9 71.020905 0.000060 0.000119 0.002323 -0.000334 106.381714 71.020905
10 71.020905 0.000060 0.000119 0.002323 -0.000334 106.381706 71.020905
[R_front_hand02_02]
9 71.020844 -0.000030 -0.000119 0.002323 -0.000334 106.381714 71.020836
10 71.020844 -0.000030 -0.000119 0.002323 -0.000334 106.381706 71.020836
[R_front_hand03_02]
9 71.020905 0.000000 0.000030 0.002323 -0.000334 106.381714 71.020905
10 71.020905 0.000000 0.000030 0.002323 -0.000334 106.381706 71.020905
[null_rope01_connect]
9 328.732483 0.000000 -0.000238 -136.347153 -63.600224 174.819275 328.732483
10 328.732483 0.000000 -0.000238 -133.857224 -63.874050 171.560501 328.732483
[Rope1_Seg01]
9 -0.000026 -0.000052 0.000104 123.380089 19.648777 -158.076736 0.000119
10 -0.000024 -0.000049 0.000098 127.284416 22.244070 -155.257797 0.000112
[Rope1_Seg02]
9 139.999863 -0.000179 0.000000 -0.269090 -7.481208 8.079828 139.999863
10 139.999863 -0.000179 0.000000 -1.405497 -5.981483 8.010883 139.999863
[Rope1_Seg03]
9 139.999924 0.000060 -0.000060 -0.319340 -6.701864 7.337698 139.999924
10 139.999924 0.000060 -0.000060 -0.925524 -5.596341 7.286226 139.999924
[Rope1_Seg04]
9 139.999924 -0.000060 -0.000119 -0.804843 -4.155675 6.240027 139.999924
10 139.999924 -0.000060 -0.000119 -0.947925 -3.847211 5.989401 139.999924
[Rope1_Seg05]
9 139.999832 0.000119 -0.000060 -0.070753 -4.208446 4.395122 139.999832
10 139.999832 0.000119 -0.000060 -0.207095 -4.237752 4.836103 139.999832
[Rope1_Seg06]
9 139.999954 0.000119 -0.000060 0.413322 -6.852286 4.219003 139.999954
10 139.999954 0.000119 -0.000060 0.183072 -6.396765 5.268675 139.999954
[Rope1_Seg07]
9 139.999985 0.000060 0.000000 0.059734 -10.292707 5.202140 139.999985
10 139.999985 0.000060 0.000000 0.003392 -7.501236 5.797832 139.999985
[Rope1_Seg09]
9 121.602913 0.000119 -0.000089 -89.793175 -1.359789 0.847147 121.602913
10 121.602913 0.000119 -0.000089 -89.793175 -1.359789 0.847147 121.602913
[L_mid_hand01]
9 103.859421 1.038730 8.195221 122.214584 -62.281197 -29.682938 104.187431
10 103.859421 1.038730 8.195221 118.511871 -58.710995 -25.432121 104.187431
[L_mid_hand02]
9 105.572853 -4.139662 -10.864139 -163.055786 41.815422 -64.846161 106.211075
10 105.572853 -4.139662 -10.864139 -159.626389 40.490181 -59.638351 106.211075
[L_mid_hand03]
9 104.641464 17.579376 -3.913581 -8.059160 17.002192 68.062866 106.179977
10 104.641464 17.579376 -3.913581 -9.285489 16.381811 63.801441 106.179977
[null_rope02_connect]
9 328.732849 0.000179 -0.000119 -125.965645 56.726616 23.340282 328.732849
10 328.732849 0.000179 -0.000119 -128.856033 54.011391 17.068287 328.732849
[Rope2_Seg01]
9 0.000095 0.000153 0.000024 172.141769 28.848879 -49.077370 0.000182
10 0.000095 0.000153 0.000027 110.842972 18.723417 -61.247578 0.000182
[Rope2_Seg02]
9 139.999741 -0.000060 -0.000119 37.654388 7.884813 -5.497259 139.999756
10 139.999741 -0.000060 -0.000119 -28.134367 9.501545 1.590928 139.999756
[Rope2_Seg03]
9 140.000107 0.000030 0.000000 135.274460 4.481874 -6.130250 140.000107
10 140.000107 0.000030 0.000000 -29.636038 2.483132 6.005594 140.000107
[Rope2_Seg04]
9 139.999802 0.000000 -0.000060 -2.094122 -5.479274 2.910041 139.999802
10 139.999802 0.000000 -0.000060 -26.905056 3.269549 5.484832 139.999802
[Rope2_Seg05]
9 139.999985 -0.000060 0.000119 -27.322861 -1.603095 10.697558 139.999985
10 139.999985 -0.000060 0.000119 -53.896957 9.572566 10.362910 139.999985
[Rope2_Seg06]
9 139.999893 -0.000030 -0.000119 -9.605014 -4.300519 6.917650 139.999893
10 139.999893 -0.000030 -0.000119 -19.092272 -1.642215 8.993415 139.999893
[Rope2_Seg07]
9 139.999893 0.000060 -0.000060 -2.403218 -3.140139 2.868746 139.999893
10 139.999893 0.000060 -0.000060 -5.207897 -2.522871 3.855839 139.999893
[Rope2_Seg09]
9 121.338966 0.000089 -0.000060 33.793236 -1.359788 -0.847141 121.338966
10 121.338966 0.000089 -0.000060 33.793236 -1.359788 -0.847141 121.338966
[R_mid_hand01]
9 104.680779 11.144459 -10.335981 -19.035425 44.336292 66.455589 105.778534
10 104.680779 11.144459 -10.335981 -20.898422 43.633068 63.773430 105.778534
[R_mid_hand02]
9 104.070427 2.443552 8.231699 53.394081 -65.425781 34.575901 104.424065
10 104.070427 2.443552 8.231699 55.882156 -63.749573 31.819666 104.424065
[R_mid_hand03]
9 106.028137 -11.221827 -5.996406 -176.276184 15.379540 -73.491829 106.788818
10 106.028137 -11.221827 -5.996406 -175.717163 15.237032 -71.372307 106.788818
[spine02]
9 129.756927 0.001550 0.000119 -0.647282 -4.382820 1.565737 129.756927
10 129.756927 0.001550 0.000119 -0.587367 -4.387363 0.776473 129.756927
[spine03]
9 78.613945 0.084125 -4.898951 1.293830 4.775998 7.481385 78.766487
10 78.613953 0.083978 -4.898954 1.331424 4.769217 7.969033 78.766495
[pelvis]
9 169.435242 0.051022 0.000000 0.013194 0.091223 -4.158569 169.435257
10 169.435242 0.051022 0.000000 0.013989 0.091105 -3.159026 169.435257
[null_rope03_connect]
9 -1.257226 -2.466202 137.391083 -19.887156 -85.568665 103.823242 137.418976
10 -1.257226 -2.466202 137.391083 -4.287410 -82.745750 86.987595 137.418976
[null_rope04_connect]
9 -1.259640 -2.480268 -137.844437 -19.887156 -85.568665 103.823242 137.872513
10 -1.259640 -2.480268 -137.844437 -4.287410 -82.745750 86.987595 137.872513
[Rope3_Seg01]
9 -0.000035 0.000000 -0.000049 -128.187103 -8.139448 -93.110916 0.000060
10 -0.000035 0.000000 -0.000055 -130.277893 -0.051927 -89.710556 0.000065
[Rope3_Seg02]
9 139.999924 -0.000119 0.000060 8.077119 -22.408653 -38.842632 139.999924
10 139.999924 -0.000119 0.000060 6.771853 -20.411110 -37.013744 139.999924
[Rope3_Seg03]
9 139.999924 -0.000119 0.000119 2.387434 -12.033883 -18.321276 139.999924
10 139.999924 -0.000119 0.000119 0.750636 -10.338778 -17.911541 139.999924
[Rope3_Seg04]
9 139.999924 0.000119 0.000000 0.779167 -4.154663 -5.720353 139.999924
10 139.999924 0.000119 0.000000 -0.982753 -3.394307 -6.578510 139.999924
[Rope3_Seg05]
9 139.999924 -0.000238 0.000060 0.047353 -2.689140 -4.264788 139.999924
10 139.999924 -0.000238 0.000060 0.073999 -2.440591 -3.859157 139.999924
[Rope3_Seg06]
9 139.999893 -0.000119 -0.000060 -0.740885 -3.319801 -5.827785 139.999893
10 139.999893 -0.000119 -0.000060 1.276434 -3.153953 -4.220310 139.999893
[Rope3_Seg07]
9 139.999771 0.000060 -0.000119 -16.446060 -6.148080 -11.880902 139.999771
10 139.999771 0.000060 -0.000119 5.408195 -5.961086 -6.982079 139.999771
[Rope3_Seg08]
9 139.999985 -0.000060 0.000000 -144.528793 -2.595929 -13.673465 139.999985
10 139.999985 -0.000060 0.000000 36.249527 -7.482759 -7.426216 139.999985
[Rope3_Seg09]
9 90.185997 -0.000179 -0.000060 89.793228 -1.359877 -0.847183 90.185997
10 90.185997 -0.000179 -0.000060 89.793228 -1.359877 -0.847183 90.185997
[R_rear_hand01]
9 103.366196 -6.073594 -10.757982 -176.027405 24.361643 -69.845345 104.101845
10 103.366196 -6.073594 -10.757982 -174.893967 24.166168 -67.090836 104.101845
[R_rear_hand02]
9 100.509819 12.039542 -7.992327 -15.526566 35.959644 67.697319 101.543350
10 100.509819 12.039542 -7.992327 -17.255272 35.248028 64.724998 101.543350
[R_rear_hand03]
9 101.539970 5.215704 5.435467 74.484848 -68.272499 18.324223 101.819031
10 101.539970 5.215704 5.435467 75.989647 -65.836807 16.686356 101.819031
[Rope4_Seg01]
9 -0.000035 0.000000 -0.000049 59.486168 -38.873386 -114.105301 0.000060
10 -0.000035 0.000000 -0.000055 57.021919 -33.526077 -112.843254 0.000065
[Rope4_Seg02]
9 139.999985 0.000060 0.000119 -0.233882 -27.441452 -20.957224 139.999985
10 139.999985 0.000060 0.000119 -2.904344 -23.291090 -23.101675 139.999985
[Rope4_Seg03]
9 139.999924 0.000000 -0.000238 -18.368155 -19.917229 -16.041321 139.999924
10 139.999924 0.000000 -0.000238 -21.195902 -16.570465 -19.224461 139.999924
[Rope4_Seg04]
9 139.999985 0.000000 0.000119 -40.639828 -5.766037 -7.815571 139.999985
10 139.999985 0.000000 0.000119 -24.950438 -4.159028 -9.233022 139.999985
[Rope4_Seg05]
9 139.999802 -0.000060 -0.000119 -55.552666 3.358319 -8.761082 139.999802
10 139.999802 -0.000060 -0.000119 -30.864178 2.517564 -8.129420 139.999802
[Rope4_Seg06]
9 139.999924 0.000000 0.000060 -18.606436 16.190617 -2.101063 139.999924
10 139.999924 0.000000 0.000060 -26.856140 11.422578 -7.946548 139.999924
[Rope4_Seg07]
9 139.999802 0.000000 0.000000 -3.927320 21.897406 4.949558 139.999802
10 139.999802 0.000000 0.000000 -13.098928 21.944136 -2.619506 139.999802
[Rope4_Seg08]
9 139.999924 0.000000 0.000119 -2.399925 10.997096 2.986384 139.999924
10 139.999924 0.000000 0.000119 -4.480519 12.474174 0.880979 139.999924
[Rope4_Seg09]
9 90.185791 0.000060 0.000060 -135.617828 2.228885 0.850567 90.185791
10 90.185791 0.000060 0.000060 -135.617828 2.228885 0.850567 90.185791
[L_rear_hand01]
9 101.696655 -8.392275 -7.654577 -21.754822 -32.891220 123.292305 102.329041
10 101.696655 -8.392275 -7.654577 -25.776863 -29.993467 130.987747 102.329041
[L_rear_hand02]
9 102.726799 -1.568258 5.773216 78.924988 58.957436 166.614059 102.900848
10 102.726799 -1.568258 5.773216 80.757912 51.892105 168.841843 102.900848
[L_rear_hand03]
9 104.552910 9.721220 -10.420293 -171.809479 -23.347528 -120.557556 105.519653
10 104.552910 9.721220 -10.420293 -168.841812 -22.136349 -128.226913 105.519653
